HIERARCHY
ROOT Hips
{
    OFFSET   0.000000   0.000000   0.000000
    CHANNELS 6 Xposition Yposition Zposition Zrotation Xrotation Yrotation
    JOINT Chest
    {
        OFFSET   0.000000   8.007230   0.000000
        CHANNELS 3 Zrotation Xrotation Yrotation
        JOINT Chest2
        {
            OFFSET   0.000000  22.077100   0.000000
            CHANNELS 3 Zrotation Xrotation Yrotation
            JOINT Neck
            {
                OFFSET   0.000000  23.255100   0.000000
                CHANNELS 3 Zrotation Xrotation Yrotation
                JOINT Head
                {
                    OFFSET   0.000000  14.370100   1.956600
                    CHANNELS 3 Zrotation Xrotation Yrotation
                    End Site
                    {
                        OFFSET   0.000000  19.566000   0.000000
                    }
                }
            }
            JOINT LeftCollar
            {
                OFFSET   3.911900  19.017000  -0.467063
                CHANNELS 3 Zrotation Xrotation Yrotation
                JOINT LeftShoulder
                {
                    OFFSET  10.383700   0.000000   0.000000
                    CHANNELS 3 Zrotation Xrotation Yrotation
                    JOINT LeftElbow
                    {
                        OFFSET  26.662100   0.001193   0.000980
                        CHANNELS 3 Zrotation Xrotation Yrotation
                        JOINT LeftWrist
                        {
                            OFFSET  28.869000  -0.000059  -0.000082
                            CHANNELS 3 Zrotation Xrotation Yrotation
                            JOINT LeftFinger0
                            {
                                OFFSET   2.044650  -2.323450   3.252850
                                CHANNELS 3 Zrotation Xrotation Yrotation
                                JOINT LeftFinger01
                                {
                                    OFFSET   3.088130   0.000000   0.000000
                                    CHANNELS 3 Zrotation Xrotation Yrotation
                                    JOINT LeftFinger02
                                    {
                                        OFFSET   2.639460   0.000000   0.000000
                                        CHANNELS 3 Zrotation Xrotation Yrotation
                                        End Site
                                        {
                                            OFFSET   2.582190   0.000000   0.000000
                                        }
                                    }
                                }
                            }
                            JOINT LeftFinger1
                            {
                                OFFSET   8.364480   0.000000   3.252850
                                CHANNELS 3 Zrotation Xrotation Yrotation
                                JOINT LeftFinger11
                                {
                                    OFFSET   4.646930   0.000000   0.000000
                                    CHANNELS 3 Zrotation Xrotation Yrotation
                                    JOINT LeftFinger12
                                    {
                                        OFFSET   2.323470   0.000000   0.000000
                                        CHANNELS 3 Zrotation Xrotation Yrotation
                                        End Site
                                        {
                                            OFFSET   2.273050   0.000000   0.000000
                                        }
                                    }
                                }
                            }
                            JOINT LeftFinger2
                            {
                                OFFSET   8.364490   0.000016   1.078090
                                CHANNELS 3 Zrotation Xrotation Yrotation
                                JOINT LeftFinger21
                                {
                                    OFFSET   5.111610   0.000000   0.000000
                                    CHANNELS 3 Zrotation Xrotation Yrotation
                                    JOINT LeftFinger22
                                    {
                                        OFFSET   2.788150   0.000016   0.000000
                                        CHANNELS 3 Zrotation Xrotation Yrotation
                                        End Site
                                        {
                                            OFFSET   2.727660   0.000000   0.000000
                                        }
                                    }
                                }
                            }
                            JOINT LeftFinger3
                            {
                                OFFSET   7.899780   0.000015  -1.078090
                                CHANNELS 3 Zrotation Xrotation Yrotation
                                JOINT LeftFinger31
                                {
                                    OFFSET   4.646930   0.000000   0.000000
                                    CHANNELS 3 Zrotation Xrotation Yrotation
                                    JOINT LeftFinger32
                                    {
                                        OFFSET   2.323470   0.000000   0.000000
                                        CHANNELS 3 Zrotation Xrotation Yrotation
                                        End Site
                                        {
                                            OFFSET   2.273050   0.000000   0.000000
                                        }
                                    }
                                }
                            }
                            JOINT LeftFinger4
                            {
                                OFFSET   7.435090   0.000000  -3.252850
                                CHANNELS 3 Zrotation Xrotation Yrotation
                                JOINT LeftFinger41
                                {
                                    OFFSET   3.717550   0.000000   0.000000
                                    CHANNELS 3 Zrotation Xrotation Yrotation
                                    JOINT LeftFinger42
                                    {
                                        OFFSET   1.858770   0.000000   0.000000
                                        CHANNELS 3 Zrotation Xrotation Yrotation
                                        End Site
                                        {
                                            OFFSET   1.818440   0.000000   0.000000
                                        }
                                    }
                                }
                            }
                        }
                    }
                }
            }
            JOINT RightCollar
            {
                OFFSET  -3.911910  19.017000  -0.467062
                CHANNELS 3 Zrotation Xrotation Yrotation
                JOINT RightShoulder
                {
                    OFFSET -10.383700   0.000014   0.000000
                    CHANNELS 3 Zrotation Xrotation Yrotation
                    JOINT RightElbow
                    {
                        OFFSET -26.662100   0.001225   0.001091
                        CHANNELS 3 Zrotation Xrotation Yrotation
                        JOINT RightWrist
                        {
                            OFFSET -28.869000  -0.000020  -0.000085
                            CHANNELS 3 Zrotation Xrotation Yrotation
                            JOINT RightFinger0
                            {
                                OFFSET  -2.044650  -2.323490   3.252850
                                CHANNELS 3 Zrotation Xrotation Yrotation
                                JOINT RightFinger01
                                {
                                    OFFSET  -3.088130   0.000000   0.000000
                                    CHANNELS 3 Zrotation Xrotation Yrotation
                                    JOINT RightFinger02
                                    {
                                        OFFSET  -2.639460   0.000000   0.000000
                                        CHANNELS 3 Zrotation Xrotation Yrotation
                                        End Site
                                        {
                                            OFFSET  -2.582190   0.000000   0.000000
                                        }
                                    }
                                }
                            }
                            JOINT RightFinger1
                            {
                                OFFSET  -8.364480   0.000000   3.252850
                                CHANNELS 3 Zrotation Xrotation Yrotation
                                JOINT RightFinger11
                                {
                                    OFFSET  -4.646930   0.000000   0.000000
                                    CHANNELS 3 Zrotation Xrotation Yrotation
                                    JOINT RightFinger12
                                    {
                                        OFFSET  -2.323470   0.000000   0.000000
                                        CHANNELS 3 Zrotation Xrotation Yrotation
                                        End Site
                                        {
                                            OFFSET  -2.273050   0.000000   0.000000
                                        }
                                    }
                                }
                            }
                            JOINT RightFinger2
                            {
                                OFFSET  -8.364480   0.000000   1.078090
                                CHANNELS 3 Zrotation Xrotation Yrotation
                                JOINT RightFinger21
                                {
                                    OFFSET  -5.111620   0.000000   0.000000
                                    CHANNELS 3 Zrotation Xrotation Yrotation
                                    JOINT RightFinger22
                                    {
                                        OFFSET  -2.788160   0.000000   0.000000
                                        CHANNELS 3 Zrotation Xrotation Yrotation
                                        End Site
                                        {
                                            OFFSET  -2.727660   0.000000   0.000000
                                        }
                                    }
                                }
                            }
                            JOINT RightFinger3
                            {
                                OFFSET  -7.899780   0.000000  -1.078090
                                CHANNELS 3 Zrotation Xrotation Yrotation
                                JOINT RightFinger31
                                {
                                    OFFSET  -4.646930   0.000000   0.000000
                                    CHANNELS 3 Zrotation Xrotation Yrotation
                                    JOINT RightFinger32
                                    {
                                        OFFSET  -2.323470   0.000000   0.000000
                                        CHANNELS 3 Zrotation Xrotation Yrotation
                                        End Site
                                        {
                                            OFFSET  -2.273050   0.000000   0.000000
                                        }
                                    }
                                }
                            }
                            JOINT RightFinger4
                            {
                                OFFSET  -7.435090   0.000000  -3.252850
                                CHANNELS 3 Zrotation Xrotation Yrotation
                                JOINT RightFinger41
                                {
                                    OFFSET  -3.717550   0.000000   0.000000
                                    CHANNELS 3 Zrotation Xrotation Yrotation
                                    JOINT RightFinger42
                                    {
                                        OFFSET  -1.858760   0.000000   0.000000
                                        CHANNELS 3 Zrotation Xrotation Yrotation
                                        End Site
                                        {
                                            OFFSET  -1.818440   0.000000   0.000000
                                        }
                                    }
                                }
                            }
                        }
                    }
                }
            }
        }
    }
    JOINT LeftHip
    {
        OFFSET   9.783030   0.000000   0.000000
        CHANNELS 3 Zrotation Xrotation Yrotation
        JOINT LeftKnee
        {
            OFFSET   0.000063 -41.789100   0.000608
            CHANNELS 3 Zrotation Xrotation Yrotation
            JOINT LeftAnkle
            {
                OFFSET   0.000048 -41.133200  -0.000184
                CHANNELS 3 Zrotation Xrotation Yrotation
                JOINT LeftToe
                {
                    OFFSET   0.000000  -6.358960  14.674500
                    CHANNELS 3 Zrotation Xrotation Yrotation
                    End Site
                    {
                        OFFSET   0.000000   0.000000   3.913200
                    }
                }
            }
        }
    }
    JOINT RightHip
    {
        OFFSET  -9.783030   0.000000   0.000000
        CHANNELS 3 Zrotation Xrotation Yrotation
        JOINT RightKnee
        {
            OFFSET   0.000071 -41.789100   0.001239
            CHANNELS 3 Zrotation Xrotation Yrotation
            JOINT RightAnkle
            {
                OFFSET   0.000037 -41.133200  -0.000166
                CHANNELS 3 Zrotation Xrotation Yrotation
                JOINT RightToe
                {
                    OFFSET   0.000000  -6.358960  14.674500
                    CHANNELS 3 Zrotation Xrotation Yrotation
                    End Site
                    {
                        OFFSET   0.000000   0.000000   3.913200
                    }
                }
            }
        }
    }
}
MOTION
Frames: 4
Frame Time:   0.016667
  0.612258  89.425500   2.939680  -4.553220  -6.229420  -8.627240   1.366230   3.363890   0.409252   2.715350   6.736530   0.739764   0.656329   0.932455  -0.012703   1.079140   1.889800   1.693380  -6.175320   0.747421   1.186880 -76.720100  16.000000   1.676050  -0.747422  -8.438990 -19.752400  12.905000 -14.570700   7.884150  37.967700  30.651700 -59.866900 -32.107700  -0.004745  -0.002918 -11.053900   0.002332  -0.004788 -28.782700   7.240960 -12.922400 -24.221100   0.000684  -0.000187 -16.954800   0.002281  -0.003492 -28.355600   1.255770  -2.325230 -34.939800  -0.000903  -0.001068 -23.269900   0.001500  -0.005611 -27.791100   1.232830  -2.337460 -30.884500   0.003690  -0.002620 -20.569100   0.002934  -0.006089 -28.320000   1.254310  -2.325940 -42.518000   0.000536   0.002025 -28.316900   0.002978   0.003801   8.951630   0.352644   6.072080  71.816100   6.954420  -5.938890  -3.617810 -11.913100  19.761000  -3.856150   4.106910   2.270360 -39.929400  29.953400  59.554800  28.120600  -0.001176   0.000692   9.060320  -0.002525   0.006758  26.405400   5.927450  11.747600  22.104100   0.002310   0.001434  15.472900   0.001835   0.005052  27.785200   2.644460   5.004730  31.382200   0.001389   0.002834  20.900500   0.001018  -0.005482  27.301600   1.464350   2.835660  28.442200  -0.003712  -0.000808  18.942500  -0.001088   0.005029  34.983800   0.241554   0.346319  52.477300  -0.004336  -0.006636  34.949900  -0.002160   0.001920   1.975430  11.276900   3.153450   1.080240   0.390650   7.411940  -0.540894  -5.992600   5.848790   0.000000   0.000000   0.000000   3.681890   9.084500  -4.896600  -0.539407   1.003480  -7.007220  -0.271190  -3.608880   6.978200   0.000000   0.000000   0.000000
  0.615902  89.425500   2.934490  -4.577850  -6.281700  -8.668100   1.365810   3.403760   0.410533   2.714100   6.816280   0.741521   0.666152   0.952838  -0.012719   1.095350   1.931250   1.672480  -6.193190   0.753181   1.177340 -76.741100  16.156500   1.549270  -0.759170  -8.788250 -19.837900  12.946600 -14.861600   7.908870  38.137400  30.857400 -60.058700 -31.978000  -0.004739  -0.002894 -10.989100   0.002331  -0.004769 -28.768900   7.274510 -12.992700 -24.221300   0.000679  -0.000186 -16.955000   0.002258  -0.003495 -28.353600   1.289360  -2.387660 -34.941300  -0.000912  -0.001054 -23.270900   0.001480  -0.005611 -27.789200   1.265800  -2.400230 -30.885100   0.003671  -0.002609 -20.569500   0.002918  -0.006090 -28.311100   1.287200  -2.388800 -42.506000   0.000525   0.002031 -28.308900   0.002958   0.003800   8.974010   0.363515   6.085230  71.796800   7.144550  -5.826460  -3.794080 -12.002700  20.164800  -3.296320   3.541830   2.283790 -39.918400  29.719300  59.142800  27.903000  -0.001165   0.000683   8.951500  -0.002519   0.006729  26.322700   5.870810  11.679900  22.028400   0.002297   0.001430  15.419900   0.001822   0.005053  27.763200   2.587940   4.902410  31.227800   0.001368   0.002819  20.797800   0.001002  -0.005478  27.303900   1.399870   2.711420  28.442200  -0.003723  -0.000823  18.942500  -0.001109   0.005029  34.994800   0.238346   0.342366  52.494000  -0.004362  -0.006632  34.961000  -0.002171   0.001932   1.982450  11.348000   3.161520   1.081710   0.370067   7.425210  -0.534671  -5.980320   5.864400  -0.000000   0.000000   0.000000   3.690280   9.133690  -4.889760  -0.539064   1.006600  -6.984420  -0.271567  -3.602300   6.984410  -0.000000   0.000000   0.000000
  0.622195  89.425400   2.925120  -4.620880  -6.371010  -8.743820   1.364800   3.471040   0.412393   2.712000   6.950870   0.743749   0.684572   0.992044  -0.012744   1.125720   2.010810   1.635840  -6.225410   0.758941   1.166010 -76.775600  16.429900   1.332000  -0.762401  -9.315430 -20.026100  13.005000 -15.247600   7.947800  38.378000  31.177200 -60.374600 -31.818300  -0.004732  -0.002862 -10.909200   0.002330  -0.004727 -28.763000   7.336730 -13.097400 -24.223100   0.000663  -0.000185 -16.956200   0.002201  -0.003500 -28.354400   1.343740  -2.488190 -34.951900  -0.000939  -0.001017 -23.278000   0.001428  -0.005611 -27.790200   1.319180  -2.501300 -30.889800   0.003624  -0.002577 -20.572600   0.002879  -0.006091 -28.300400   1.341200  -2.489580 -42.493900   0.000493   0.002047 -28.300900   0.002907   0.003799   9.007790   0.379928   6.112220  71.767000   7.480890  -5.607550  -4.092360 -12.179800  20.838200  -2.394440   2.469420   2.337240 -40.134800  29.516300  58.683200  27.541200  -0.001135   0.000664   8.770620  -0.002513   0.006658  26.208300   5.799650  11.600500  21.925800   0.002264   0.001414  15.348000   0.001793   0.005054  27.745200   2.506370   4.753220  31.073500   0.001314   0.002781  20.695000   0.000961  -0.005471  27.308600   1.304460   2.526330  28.442300  -0.003748  -0.000860  18.942600  -0.001161   0.005029  35.047300   0.225287   0.324122  52.573000  -0.004425  -0.006627  35.013500  -0.002200   0.001961   1.994710  11.461600   3.176360   1.083100   0.349473   7.454550  -0.527517  -5.967950   5.889030  -0.000000   0.000000   0.000000   3.704660   9.216570  -4.875630  -0.538686   1.012670  -6.943710  -0.272215  -3.591070   6.995310  -0.000000   0.000000   0.000000
  0.627917  89.425300   2.916220  -4.658910  -6.445490  -8.819940   1.361590   3.524680   0.413413   2.705600   7.058140   0.744365   0.703582   1.035850  -0.012753   1.156960   2.099370   1.601890  -6.253440   0.758840   1.163920 -76.811300  16.659900   1.145020  -0.730983  -9.630590 -20.267800  13.165100 -15.327300   7.971210  38.543700  31.426300 -60.676800 -31.783200  -0.004736  -0.002854 -10.891600   0.002329  -0.004674 -28.853400   7.403800 -13.164700 -24.302600   0.000631  -0.000178 -17.011800   0.002120  -0.003505 -28.364700   1.393280  -2.578140 -35.060700  -0.000986  -0.000959 -23.350500   0.001350  -0.005611 -27.800600   1.367830  -2.591720 -30.955500   0.003552  -0.002525 -20.616400   0.002825  -0.006090 -28.333300   1.392790  -2.578420 -42.547700   0.000438   0.002074 -28.336800   0.002832   0.003799   9.025260   0.391240   6.138800  71.753900   7.792830  -5.365620  -4.347660 -12.387300  21.378000  -1.716390   1.306000   2.438070 -40.437700  29.586400  58.593000  27.250400  -0.001088   0.000640   8.625230  -0.002520   0.006546  26.171200   5.782750  11.586800  21.893700   0.002215   0.001383  15.325500   0.001751   0.005054  27.758400   2.469620   4.681720  31.126300   0.001230   0.002723  20.730200   0.000900  -0.005463  27.339200   1.254800   2.426510  28.568600  -0.003784  -0.000915  19.026700  -0.001241   0.005029  35.167700   0.197227   0.282778  52.753300  -0.004518  -0.006624  35.133600  -0.002249   0.002004   2.005540  11.536400   3.192000   1.079950   0.373288   7.492410  -0.527180  -5.981460   5.905300  -0.000000   0.000000   0.000000   3.716460   9.283120  -4.856880  -0.540157   1.019440  -6.908790  -0.274062  -3.581580   7.006500  -0.000000   0.000000   0.000000
